<?xml version="1.0" encoding="UTF-8" standalone="no"?>
<svg width="300" height="300" viewBox="0 0 300 300" fill="none" xmlns="http://www.w3.org/2000/svg">
  <defs>
    <linearGradient id="grad2" x1="0%" y1="0%" x2="100%" y2="100%">
      <stop offset="0%" style="stop-color:#BCE6EC;stop-opacity:1" />
      <stop offset="100%" style="stop-color:#FCE4D6;stop-opacity:1" />
    </linearGradient>
    <clipPath id="shape2">
      <path d="M150 300C232.843 300 300 232.843 300 150C300 67.1573 232.843 0 150 0C67.1573 0 0 67.1573 0 150C0 232.843 67.1573 300 150 300Z" />
    </clipPath>
  </defs>
  <g clip-path="url(#shape2)">
    <rect width="300" height="300" fill="url(#grad2)"/>
    <path d="M150 75L225 150L150 225L75 150L150 75Z" fill="#23262F" fill-opacity="0.1"/>
    <path d="M150 100L200 150L150 200L100 150L150 100Z" fill="#23262F" fill-opacity="0.1"/>
    <path d="M150 125L175 150L150 175L125 150L150 125Z" fill="#23262F" fill-opacity="0.1"/>
  </g>
</svg>
