<svg width="65" height="65" viewBox="0 0 65 65" fill="none" xmlns="http://www.w3.org/2000/svg">
<path d="M57.5514 44.3078C55.1681 44.3078 54.1118 43.3869 52.6222 42.0869C50.9702 40.6786 48.9119 38.8911 45.0389 38.8911C41.1389 38.8911 39.1076 40.6786 37.4556 42.0869C35.966 43.3869 34.8827 44.3078 32.4993 44.3078C30.1431 44.3078 29.0597 43.3869 27.5702 42.0869C25.9181 40.6786 23.8598 38.8911 19.9869 38.8911C16.0869 38.8911 14.0285 40.6786 12.3765 42.0869C10.8869 43.3869 9.8306 44.3078 7.44727 44.3078C6.33685 44.3078 5.41602 45.2286 5.41602 46.339C5.41602 47.4765 6.33685 48.3703 7.44727 48.3703C11.3473 48.3703 13.3785 46.6099 15.0306 45.1744C16.5201 43.8744 17.6035 42.9536 19.9869 42.9536C22.3702 42.9536 23.4265 43.8744 24.916 45.1744C26.5681 46.6099 28.6264 48.3703 32.4993 48.3703C36.3993 48.3703 38.4577 46.6099 40.1098 45.1744C41.5993 43.8744 42.6556 42.9536 45.0389 42.9536C47.3952 42.9536 48.4785 43.8744 49.9681 45.1744C51.6202 46.6099 53.6785 48.3703 57.5514 48.3703C58.6618 48.3703 59.5827 47.4765 59.5827 46.339C59.5827 45.2286 58.6618 44.3078 57.5514 44.3078Z" fill="white"/>
<path d="M57.5514 33.1504C55.1681 33.1504 54.1118 32.2025 52.6222 30.9296C50.9702 29.4942 48.9119 27.7338 45.0389 27.7338C41.1389 27.7338 39.1076 29.4942 37.4556 30.9296C35.966 32.2025 34.8827 33.1504 32.4993 33.1504C30.1431 33.1504 29.0597 32.2025 27.5702 30.9296C25.9181 29.4942 23.8598 27.7338 19.9869 27.7338C16.0869 27.7338 14.0285 29.4942 12.3765 30.9296C10.8869 32.2025 9.8306 33.1504 7.44727 33.1504C6.33685 33.1504 5.41602 34.0442 5.41602 35.1817C5.41602 36.2921 6.33685 37.2129 7.44727 37.2129C11.3473 37.2129 13.3785 35.4254 15.0306 33.99C16.5201 32.7171 17.6035 31.7963 19.9869 31.7963C22.3702 31.7963 23.4265 32.7171 24.916 33.99C26.5681 35.4254 28.6264 37.2129 32.4993 37.2129C36.3993 37.2129 38.4577 35.4254 40.1098 33.99C41.5993 32.7171 42.6556 31.7963 45.0389 31.7963C47.3952 31.7963 48.4785 32.7171 49.9681 33.99C51.6202 35.4254 53.6785 37.2129 57.5514 37.2129C58.6618 37.2129 59.5827 36.2921 59.5827 35.1817C59.5827 34.0442 58.6618 33.1504 57.5514 33.1504Z" fill="white"/>
<path d="M7.44727 26.1087C11.3473 26.1087 13.3785 24.3212 15.0306 22.9129C16.5201 21.6129 17.6035 20.692 19.9869 20.692C22.3702 20.692 23.4265 21.6129 24.916 22.9129C26.5681 24.3212 28.6264 26.1087 32.4993 26.1087C36.3993 26.1087 38.4577 24.3212 40.1098 22.9129C41.5993 21.6129 42.6556 20.692 45.0389 20.692C47.3952 20.692 48.4785 21.6129 49.9681 22.9129C51.6202 24.3212 53.6785 26.1087 57.5514 26.1087C58.6618 26.1087 59.5827 25.1879 59.5827 24.0774C59.5827 22.9399 58.6618 22.0462 57.5514 22.0462C55.1681 22.0462 54.1118 21.1254 52.6222 19.8254C50.9702 18.3899 48.9119 16.6295 45.0389 16.6295C41.1389 16.6295 39.1076 18.3899 37.4556 19.8254C35.966 21.1254 34.8827 22.0462 32.4993 22.0462C30.1431 22.0462 29.0597 21.1254 27.5702 19.8254C25.9181 18.3899 23.8598 16.6295 19.9869 16.6295C16.0869 16.6295 14.0285 18.3899 12.3765 19.8254C10.8869 21.1254 9.8306 22.0462 7.44727 22.0462C6.33685 22.0462 5.41602 22.9399 5.41602 24.0774C5.41602 25.1879 6.33685 26.1087 7.44727 26.1087Z" fill="white"/>
</svg>
