<svg width="131" height="136" viewBox="0 0 131 136" fill="none" xmlns="http://www.w3.org/2000/svg">
<path d="M15.6507 43.2948C32.4339 30.7254 51.9743 23.0115 72.683 28.6292C91.3749 33.7 103.143 49.6307 90.5396 69.3322C84.5735 78.6585 71.8706 85.1865 61.8852 79.8739C50.7606 73.9553 59.5288 59.0169 66.6505 54.7089C83.2839 44.6467 106.696 49.3236 118.212 68.8675C131.849 92.012 108.785 103.532 108.769 103.344" stroke="black" stroke-width="3.37884" stroke-miterlimit="1.5" stroke-linecap="round" stroke-linejoin="round"/>
<path d="M19.2677 18.3822C19.8769 20.8067 19.5251 23.2338 19.2857 25.6773C18.5001 33.7009 15.3547 42.031 9.71102 47.2934C17.1374 44.0372 27.7917 42.6191 34.5369 48.3348" stroke="black" stroke-width="3.37884" stroke-miterlimit="1.5" stroke-linecap="round" stroke-linejoin="round"/>
</svg>
