<svg width="120" height="192" viewBox="0 0 120 192" fill="none" xmlns="http://www.w3.org/2000/svg">
<g opacity="0.5">
<rect width="3" height="3" fill="black"/>
<rect x="19" width="3" height="3" fill="black"/>
<rect x="38" width="3" height="3" fill="black"/>
<rect x="57" width="3" height="3" fill="black"/>
<rect x="76" width="3" height="3" fill="black"/>
<rect x="95" width="3" height="3" fill="black"/>
<rect x="113" width="3" height="3" fill="black"/>
<rect y="19" width="3" height="3" fill="black"/>
<rect x="19" y="19" width="3" height="3" fill="black"/>
<rect x="38" y="19" width="3" height="3" fill="black"/>
<rect x="57" y="19" width="3" height="3" fill="black"/>
<rect x="76" y="19" width="3" height="3" fill="black"/>
<rect x="95" y="19" width="3" height="3" fill="black"/>
<rect x="113" y="19" width="3" height="3" fill="black"/>
<rect y="38" width="3" height="3" fill="black"/>
<rect x="19" y="38" width="3" height="3" fill="black"/>
<rect x="38" y="38" width="3" height="3" fill="black"/>
<rect x="57" y="38" width="3" height="3" fill="black"/>
<rect x="76" y="38" width="3" height="3" fill="black"/>
<rect x="95" y="38" width="3" height="3" fill="black"/>
<rect x="113" y="38" width="3" height="3" fill="black"/>
<rect y="57" width="3" height="3" fill="black"/>
<rect x="19" y="57" width="3" height="3" fill="black"/>
<rect x="38" y="57" width="3" height="3" fill="black"/>
<rect x="57" y="57" width="3" height="3" fill="black"/>
<rect x="76" y="57" width="3" height="3" fill="black"/>
<rect x="95" y="57" width="3" height="3" fill="black"/>
<rect x="113" y="57" width="3" height="3" fill="black"/>
<rect y="76" width="3" height="3" fill="black"/>
<rect x="19" y="76" width="3" height="3" fill="black"/>
<rect x="38" y="76" width="3" height="3" fill="black"/>
<rect x="57" y="76" width="3" height="3" fill="black"/>
<rect x="76" y="76" width="3" height="3" fill="black"/>
<rect x="95" y="76" width="3" height="3" fill="black"/>
<rect x="113" y="76" width="3" height="3" fill="black"/>
<rect y="95" width="3" height="3" fill="black"/>
<rect x="19" y="95" width="3" height="3" fill="black"/>
<rect x="38" y="95" width="3" height="3" fill="black"/>
<rect x="57" y="95" width="3" height="3" fill="black"/>
<rect x="76" y="95" width="3" height="3" fill="black"/>
<rect x="95" y="95" width="3" height="3" fill="black"/>
<rect x="113" y="95" width="3" height="3" fill="black"/>
<rect y="114" width="3" height="3" fill="black"/>
<rect x="19" y="114" width="3" height="3" fill="black"/>
<rect x="38" y="114" width="3" height="3" fill="black"/>
<rect x="57" y="114" width="3" height="3" fill="black"/>
<rect x="76" y="114" width="3" height="3" fill="black"/>
<rect x="95" y="114" width="3" height="3" fill="black"/>
<rect x="113" y="114" width="3" height="3" fill="black"/>
<rect y="133" width="3" height="3" fill="black"/>
<rect x="19" y="133" width="3" height="3" fill="black"/>
<rect x="38" y="133" width="3" height="3" fill="black"/>
<rect x="57" y="133" width="3" height="3" fill="black"/>
<rect x="76" y="133" width="3" height="3" fill="black"/>
<rect x="95" y="133" width="3" height="3" fill="black"/>
<rect x="113" y="133" width="3" height="3" fill="black"/>
<rect y="152" width="3" height="3" fill="black"/>
<rect x="19" y="152" width="3" height="3" fill="black"/>
<rect x="38" y="152" width="3" height="3" fill="black"/>
<rect x="57" y="152" width="3" height="3" fill="black"/>
<rect x="76" y="152" width="3" height="3" fill="black"/>
<rect x="95" y="152" width="3" height="3" fill="black"/>
<rect x="113" y="152" width="3" height="3" fill="black"/>
<rect y="170" width="3" height="3" fill="black"/>
<rect x="19" y="170" width="3" height="3" fill="black"/>
<rect x="38" y="170" width="3" height="3" fill="black"/>
<rect x="57" y="170" width="3" height="3" fill="black"/>
<rect x="76" y="170" width="3" height="3" fill="black"/>
<rect x="95" y="170" width="3" height="3" fill="black"/>
<rect x="113" y="170" width="3" height="3" fill="black"/>
<rect y="189" width="3" height="3" fill="black"/>
<rect x="19" y="189" width="3" height="3" fill="black"/>
<rect x="38" y="189" width="3" height="3" fill="black"/>
<rect x="57" y="189" width="3" height="3" fill="black"/>
<rect x="76" y="189" width="3" height="3" fill="black"/>
<rect x="95" y="189" width="3" height="3" fill="black"/>
<rect x="113" y="189" width="3" height="3" fill="black"/>
</g>
</svg>
