<svg width="24" height="24" viewBox="0 0 24 24" fill="none" xmlns="http://www.w3.org/2000/svg">
<path fill-rule="evenodd" clip-rule="evenodd" d="M11.9525 2C13.283 2.04735 14.661 2.04735 15.9916 2.09469C17.1795 2.14203 18.2724 2.33141 19.3178 2.94687C20.6484 3.75171 21.4562 4.9353 21.7413 6.45029C21.8838 7.34982 21.9314 8.29668 21.9789 9.19622C22.0264 11.1846 21.9789 13.1731 21.9789 15.1615C21.9789 16.2031 21.9314 17.2446 21.5987 18.2388C20.9335 20.1799 19.5554 21.3635 17.5597 21.7422C16.6568 21.9316 15.7064 21.9316 14.8036 21.979C12.8078 22.0263 10.8596 21.979 8.86378 21.979C7.81837 21.979 6.77297 21.9316 5.77508 21.6002C3.82682 20.9374 2.63886 19.5644 2.25871 17.576C2.06864 16.6765 2.06864 15.7296 2.02112 14.8301C1.9736 12.8417 2.02112 10.8532 2.02112 8.86481C2.02112 7.82326 2.06864 6.7817 2.40127 5.78748C3.06653 3.84639 4.44456 2.66281 6.44033 2.28406C7.34319 2.0947 8.29356 2.0947 9.19641 2.04735C10.0993 2 11.0021 2 11.9525 2ZM20.1738 11.8002C20.1263 11.8002 20.1738 11.8002 20.1738 11.8002C20.1263 10.9954 20.1263 10.2379 20.1263 9.43305C20.1263 8.67556 20.0788 7.91806 19.9837 7.16056C19.7937 5.45619 18.7958 4.31995 17.1326 3.98855C16.2773 3.79918 15.3269 3.79918 14.4716 3.79918C12.7609 3.75183 11.0978 3.75183 9.38712 3.79918C8.53179 3.79918 7.67646 3.84651 6.86864 3.98855C5.44309 4.22526 4.4452 5.0301 4.01754 6.45041C3.87498 6.92384 3.82746 7.39728 3.77994 7.87071C3.73242 9.66977 3.73242 11.4688 3.73242 13.2679C3.73242 14.4041 3.77994 15.5877 3.87498 16.724C4.01754 18.4283 5.06294 19.6119 6.77361 19.896C7.62894 20.038 8.53179 20.0853 9.43464 20.0853C11.0978 20.1327 12.7609 20.0853 14.4716 20.0853C15.2319 20.0853 15.9922 20.038 16.7525 19.9433C17.4653 19.896 18.1305 19.6592 18.7007 19.1858C19.6511 18.4283 19.9837 17.4341 20.0313 16.2979C20.1263 14.8775 20.1263 13.3626 20.1738 11.8002Z" fill="#535353"/>
<path fill-rule="evenodd" clip-rule="evenodd" d="M17.0838 11.9894C17.0838 14.83 14.8029 17.1025 11.9518 17.1025C9.10071 17.1025 6.81982 14.83 6.81982 11.9421C6.81982 9.14881 9.14823 6.87634 11.9993 6.87634C14.8029 6.87634 17.0838 9.14881 17.0838 11.9894ZM11.9524 15.3033C13.7581 15.3033 15.2787 13.7883 15.2787 11.9893C15.2787 10.1902 13.7581 8.67525 11.9524 8.67525C10.0992 8.67525 8.62608 10.1902 8.62608 11.9893C8.57857 13.7883 10.0992 15.3033 11.9524 15.3033Z" fill="#535353"/>
<path d="M18.4624 6.63916C18.4624 7.30198 17.9399 7.8701 17.2748 7.8701C16.6098 7.8701 16.0397 7.30198 16.0872 6.63916C16.0872 5.97635 16.6098 5.45557 17.2748 5.45557C17.9399 5.45557 18.4624 5.97635 18.4624 6.63916Z" fill="#535353"/>
</svg>
