
<svg width="24" height="24" viewBox="0 0 24 24" fill="none" xmlns="http://www.w3.org/2000/svg">
<path fill-rule="evenodd" clip-rule="evenodd" d="M5 3H19C20.1046 3 21 3.89543 21 5V19C21 20.1046 20.1046 21 19 21H5C3.89543 21 3 20.1046 3 19V5C3 3.89543 3.89543 3 5 3ZM8 18V10H6V18H8ZM7 8.25C7.69036 8.25 8.25 7.69036 8.25 7C8.25 6.30964 7.69036 5.75 7 5.75C6.30964 5.75 5.75 6.30964 5.75 7C5.75 7.69036 6.30964 8.25 7 8.25ZM18 18V13.9688C18 12.4087 17.1875 11.4375 15.9188 11.4375C14.7188 11.4375 14.0938 12.4087 14 13.9688V18H12V10H14V11.0312C14.375 10.3438 15.25 9.5625 16.5312 9.5625C18.5312 9.5625 20 10.9688 20 13.9688V18H18Z" fill="#535353"/>
</svg>
