<svg width="24" height="24" viewBox="0 0 24 24" fill="none" xmlns="http://www.w3.org/2000/svg">
<path fill-rule="evenodd" clip-rule="evenodd" d="M22 5.13295C21.2471 5.49711 20.4941 5.75723 19.6471 5.86127C20.4941 5.28902 21.1529 4.40463 21.4353 3.36416C20.6353 3.88439 19.7412 4.24855 18.8471 4.45664C18.0941 3.57225 17.0118 3 15.8353 3C13.5765 3 11.7412 5.0289 11.7412 7.52601C11.7412 7.89018 11.7882 8.25433 11.8353 8.56648C8.4 8.35838 5.38824 6.58959 3.3647 3.83237C2.98823 4.50867 2.8 5.28902 2.8 6.12139C2.8 7.68209 3.50588 9.08671 4.63529 9.91907C3.97647 9.91907 3.31765 9.71099 2.75294 9.34682V9.39884C2.75294 11.5838 4.16471 13.4566 6.04706 13.8728C5.71764 13.9769 5.34118 14.0289 4.9647 14.0289C4.68235 14.0289 4.44706 13.9769 4.21177 13.9249C4.72941 15.7457 6.2353 17.0462 8.07058 17.0983C6.65882 18.2948 4.91764 19.0231 2.98823 19.0231C2.65882 19.0231 2.32941 19.0231 2 18.9711C3.8353 20.2717 5.95294 21 8.30588 21C15.8824 21 19.9765 14.0809 19.9765 8.09827C19.9765 7.89018 19.9765 7.68209 19.9765 7.52601C20.7765 6.84972 21.4823 6.01734 22 5.13295Z" fill="white"/>
</svg>
